<?xml version="1.0" encoding="UTF-8" standalone="no"?>
<svg xmlns="http://www.w3.org/2000/svg" viewBox="0 0 100 100">
  <g id="Layer_2" data-name="Layer 2">
    <g id="Layer_1-2" data-name="Layer 1">
      <path fill="white" d="M50,0a50,50,0,1,0,50,50A50,50,0,0,0,50,0Zm0,94.2A44.2,44.2,0,1,1,94.2,50,44.21,44.21,0,0,1,50,94.2Z" />
      <path fill="white" d="M50,54.1l9.4,9.4" />
      <path fill="white" d="M59.4,36.5,50,45.9l-9.4-9.4a2.9,2.9,0,1,0-4.1,4.1L45.9,50l-9.4,9.4a2.9,2.9,0,1,0,4.1,4.1L50,54.1l9.4,9.4a2.9,2.9,0,1,0,4.1-4.1L54.1,50l9.4-9.4a3,3,0,0,0,0-4.1A2.78,2.78,0,0,0,59.4,36.5Z" />
    </g>
  </g>
</svg>